<svg id="visual" viewBox="0 0 960 300" width="960" height="300" xmlns="http://www.w3.org/2000/svg" xmlns:xlink="http://www.w3.org/1999/xlink" version="1.1"><rect x="0" y="0" width="960" height="300" fill="#000000"></rect><path d="M0 224L22.8 222.8C45.7 221.7 91.3 219.3 137 214C182.7 208.7 228.3 200.3 274 200.2C319.7 200 365.3 208 411.2 212.5C457 217 503 218 548.8 217.5C594.7 217 640.3 215 686 211.3C731.7 207.7 777.3 202.3 823 199.2C868.7 196 914.3 195 937.2 194.5L960 194L960 301L937.2 301C914.3 301 868.7 301 823 301C777.3 301 731.7 301 686 301C640.3 301 594.7 301 548.8 301C503 301 457 301 411.2 301C365.3 301 319.7 301 274 301C228.3 301 182.7 301 137 301C91.3 301 45.7 301 22.8 301L0 301Z" fill="#410757"></path><path d="M0 231L22.8 227.7C45.7 224.3 91.3 217.7 137 213.8C182.7 210 228.3 209 274 209.2C319.7 209.3 365.3 210.7 411.2 212.8C457 215 503 218 548.8 215.7C594.7 213.3 640.3 205.7 686 205.8C731.7 206 777.3 214 823 216C868.7 218 914.3 214 937.2 212L960 210L960 301L937.2 301C914.3 301 868.7 301 823 301C777.3 301 731.7 301 686 301C640.3 301 594.7 301 548.8 301C503 301 457 301 411.2 301C365.3 301 319.7 301 274 301C228.3 301 182.7 301 137 301C91.3 301 45.7 301 22.8 301L0 301Z" fill="#5f0c7e"></path><path d="M0 238L22.8 235.3C45.7 232.7 91.3 227.3 137 224.7C182.7 222 228.3 222 274 222.8C319.7 223.7 365.3 225.3 411.2 228C457 230.7 503 234.3 548.8 237.3C594.7 240.3 640.3 242.7 686 245C731.7 247.3 777.3 249.7 823 251.2C868.7 252.7 914.3 253.3 937.2 253.7L960 254L960 301L937.2 301C914.3 301 868.7 301 823 301C777.3 301 731.7 301 686 301C640.3 301 594.7 301 548.8 301C503 301 457 301 411.2 301C365.3 301 319.7 301 274 301C228.3 301 182.7 301 137 301C91.3 301 45.7 301 22.8 301L0 301Z" fill="#7e11a7"></path><path d="M0 263L22.8 262.8C45.7 262.7 91.3 262.3 137 261.3C182.7 260.3 228.3 258.7 274 256.8C319.7 255 365.3 253 411.2 254.5C457 256 503 261 548.8 262.3C594.7 263.7 640.3 261.3 686 261.5C731.7 261.7 777.3 264.3 823 262.3C868.7 260.3 914.3 253.7 937.2 250.3L960 247L960 301L937.2 301C914.3 301 868.7 301 823 301C777.3 301 731.7 301 686 301C640.3 301 594.7 301 548.8 301C503 301 457 301 411.2 301C365.3 301 319.7 301 274 301C228.3 301 182.7 301 137 301C91.3 301 45.7 301 22.8 301L0 301Z" fill="#9f16d2"></path><path d="M0 279L22.8 279.2C45.7 279.3 91.3 279.7 137 280C182.7 280.3 228.3 280.7 274 278.5C319.7 276.3 365.3 271.7 411.2 269.2C457 266.7 503 266.3 548.8 266.3C594.7 266.3 640.3 266.7 686 267.5C731.7 268.3 777.3 269.7 823 269.5C868.7 269.3 914.3 267.7 937.2 266.8L960 266L960 301L937.2 301C914.3 301 868.7 301 823 301C777.3 301 731.7 301 686 301C640.3 301 594.7 301 548.8 301C503 301 457 301 411.2 301C365.3 301 319.7 301 274 301C228.3 301 182.7 301 137 301C91.3 301 45.7 301 22.8 301L0 301Z" fill="#c11cff"></path></svg>