<svg id="visual" viewBox="0 0 960 300" width="960" height="300" xmlns="http://www.w3.org/2000/svg" xmlns:xlink="http://www.w3.org/1999/xlink" version="1.1"><rect x="0" y="0" width="960" height="300" fill="#000000"></rect><path d="M0 74L22.8 75.2C45.7 76.3 91.3 78.7 137 84C182.7 89.3 228.3 97.7 274 97.8C319.7 98 365.3 90 411.2 85.5C457 81 503 80 548.8 80.5C594.7 81 640.3 83 686 86.7C731.7 90.3 777.3 95.7 823 98.8C868.7 102 914.3 103 937.2 103.5L960 104L960 0L937.2 0C914.3 0 868.7 0 823 0C777.3 0 731.7 0 686 0C640.3 0 594.7 0 548.8 0C503 0 457 0 411.2 0C365.3 0 319.7 0 274 0C228.3 0 182.7 0 137 0C91.3 0 45.7 0 22.8 0L0 0Z" fill="#410757"></path><path d="M0 67L22.8 70.3C45.7 73.7 91.3 80.3 137 84.2C182.7 88 228.3 89 274 88.8C319.7 88.7 365.3 87.3 411.2 85.2C457 83 503 80 548.8 82.3C594.7 84.7 640.3 92.3 686 92.2C731.7 92 777.3 84 823 82C868.7 80 914.3 84 937.2 86L960 88L960 0L937.2 0C914.3 0 868.7 0 823 0C777.3 0 731.7 0 686 0C640.3 0 594.7 0 548.8 0C503 0 457 0 411.2 0C365.3 0 319.7 0 274 0C228.3 0 182.7 0 137 0C91.3 0 45.7 0 22.8 0L0 0Z" fill="#5f0c7e"></path><path d="M0 60L22.8 62.7C45.7 65.3 91.3 70.7 137 73.3C182.7 76 228.3 76 274 75.2C319.7 74.3 365.3 72.7 411.2 70C457 67.3 503 63.7 548.8 60.7C594.7 57.7 640.3 55.3 686 53C731.7 50.7 777.3 48.3 823 46.8C868.7 45.3 914.3 44.7 937.2 44.3L960 44L960 0L937.2 0C914.3 0 868.7 0 823 0C777.3 0 731.7 0 686 0C640.3 0 594.7 0 548.8 0C503 0 457 0 411.2 0C365.3 0 319.7 0 274 0C228.3 0 182.7 0 137 0C91.3 0 45.7 0 22.8 0L0 0Z" fill="#7e11a7"></path><path d="M0 35L22.8 35.2C45.7 35.3 91.3 35.7 137 36.7C182.7 37.7 228.3 39.3 274 41.2C319.7 43 365.3 45 411.2 43.5C457 42 503 37 548.8 35.7C594.7 34.3 640.3 36.7 686 36.5C731.7 36.3 777.3 33.7 823 35.7C868.7 37.7 914.3 44.3 937.2 47.7L960 51L960 0L937.2 0C914.3 0 868.7 0 823 0C777.3 0 731.7 0 686 0C640.3 0 594.7 0 548.8 0C503 0 457 0 411.2 0C365.3 0 319.7 0 274 0C228.3 0 182.7 0 137 0C91.3 0 45.7 0 22.8 0L0 0Z" fill="#9f16d2"></path><path d="M0 19L22.8 18.8C45.7 18.7 91.3 18.3 137 18C182.7 17.7 228.3 17.3 274 19.5C319.7 21.7 365.3 26.3 411.2 28.8C457 31.3 503 31.7 548.8 31.7C594.7 31.7 640.3 31.3 686 30.5C731.7 29.7 777.3 28.3 823 28.5C868.7 28.7 914.3 30.3 937.2 31.2L960 32L960 0L937.2 0C914.3 0 868.7 0 823 0C777.3 0 731.7 0 686 0C640.3 0 594.7 0 548.8 0C503 0 457 0 411.2 0C365.3 0 319.7 0 274 0C228.3 0 182.7 0 137 0C91.3 0 45.7 0 22.8 0L0 0Z" fill="#c11cff"></path></svg>